# Blender 4.3.0
# www.blender.org
mtllib Wizard hat red pointy.mtl
o Circle.002
v -11.584521 0.464384 -1.000000
v -12.535578 0.464384 -0.309017
v -12.172306 0.464384 0.809017
v -10.996737 0.464384 0.809017
v -10.633465 0.464384 -0.309017
v -11.584521 0.221747 -2.193428
v -13.670595 0.221747 -0.677806
v -12.873786 0.221747 1.774520
v -10.295257 0.221747 1.774520
v -9.498447 0.221747 -0.677806
v -11.584521 1.405539 -0.610226
v -12.037240 1.316425 -0.076489
v -11.584521 1.239616 0.519529
v -11.131804 1.316425 -0.076489
v -11.584521 2.120013 -0.333032
v -11.984995 2.096191 0.360198
v -11.184049 2.096191 0.360198
v -11.584521 3.005277 0.568513
v -11.631555 2.933683 0.607380
v -11.537488 2.933683 0.607380
vn -0.2318 0.9698 0.0753
vn 0.1433 0.9698 -0.1972
vn -0.0000 0.9698 0.2437
vn -0.1433 0.9698 -0.1972
vn 0.2318 0.9698 0.0753
vn -0.0000 0.3498 0.9368
vn -0.7611 0.5215 0.3857
vn 0.7611 0.5215 0.3857
vn 0.6154 0.4056 -0.6759
vn -0.6154 0.4056 -0.6759
vn -0.7998 0.2813 -0.5303
vn 0.7998 0.2813 -0.5303
vn -0.7844 -0.2622 0.5621
vn 0.7844 -0.2622 0.5621
vn -0.0000 0.1829 0.9831
vn 0.7888 0.4447 -0.4242
vn -0.0000 -0.2831 0.9591
vn -0.7888 0.4447 -0.4242
vn -0.0000 0.4771 0.8788
vt 0.000000 0.000000
s 0
usemtl Material.003
f 3/1/1 2/1/1 7/1/1 8/1/1
f 1/1/2 5/1/2 10/1/2 6/1/2
f 4/1/3 3/1/3 8/1/3 9/1/3
f 2/1/4 1/1/4 6/1/4 7/1/4
f 5/1/5 4/1/5 9/1/5 10/1/5
f 3/1/6 4/1/6 13/1/6
f 2/1/7 3/1/7 13/1/7 12/1/7
f 4/1/8 5/1/8 14/1/8 13/1/8
f 5/1/9 1/1/9 11/1/9 14/1/9
f 1/1/10 2/1/10 12/1/10 11/1/10
f 11/1/11 12/1/11 16/1/11 15/1/11
f 14/1/12 11/1/12 15/1/12 17/1/12
f 12/1/13 13/1/13 16/1/13
f 13/1/14 14/1/14 17/1/14
f 17/1/15 16/1/15 13/1/15
f 17/1/16 15/1/16 18/1/16 20/1/16
f 16/1/17 17/1/17 20/1/17 19/1/17
f 15/1/18 16/1/18 19/1/18 18/1/18
f 19/1/19 20/1/19 18/1/19
