# Blender 4.3.0
# www.blender.org
mtllib Wizard hat blue curved.mtl
o Circle
v 0.000000 0.464384 -1.000000
v -0.951057 0.464384 -0.309017
v -0.587785 0.464384 0.809017
v 0.587785 0.464384 0.809017
v 0.951057 0.464384 -0.309017
v -0.000000 0.221747 -2.124817
v -2.020821 0.221747 -0.656605
v -1.248936 0.221747 1.719013
v 1.248936 0.221747 1.719013
v 2.020821 0.221747 -0.656605
v -0.000000 1.615403 -0.729055
v -0.579223 1.371184 -0.081225
v 0.000000 1.126964 0.647830
v 0.579223 1.371184 -0.081225
v -0.000000 2.513180 0.422149
v -0.429079 1.912616 0.859926
v 0.429079 1.912616 0.859926
v 0.000000 2.085825 1.799437
v -0.047033 2.004398 1.801891
v 0.047033 2.004398 1.801891
vn -0.2450 0.9662 0.0796
vn 0.1514 0.9662 -0.2084
vn -0.0000 0.9662 0.2576
vn -0.1514 0.9662 -0.2084
vn 0.2450 0.9662 0.0796
vn -0.0000 0.2364 0.9717
vn -0.7693 0.4512 0.4522
vn 0.7693 0.4512 0.4522
vn 0.6562 0.2876 -0.6976
vn -0.6562 0.2876 -0.6976
vn -0.7847 0.5356 -0.3121
vn 0.7847 0.5356 -0.3121
vn -0.7451 -0.5198 0.4179
vn 0.7451 -0.5198 0.4179
vn -0.0000 -0.2606 0.9654
vn 0.7306 0.6483 0.2142
vn -0.0000 -0.9953 0.0970
vn -0.7306 0.6483 0.2142
vn -0.0000 0.0301 0.9995
vt 0.000000 0.000000
s 0
usemtl Material.001
f 3/1/1 2/1/1 7/1/1 8/1/1
f 1/1/2 5/1/2 10/1/2 6/1/2
f 4/1/3 3/1/3 8/1/3 9/1/3
f 2/1/4 1/1/4 6/1/4 7/1/4
f 5/1/5 4/1/5 9/1/5 10/1/5
f 3/1/6 4/1/6 13/1/6
f 2/1/7 3/1/7 13/1/7 12/1/7
f 4/1/8 5/1/8 14/1/8 13/1/8
f 5/1/9 1/1/9 11/1/9 14/1/9
f 1/1/10 2/1/10 12/1/10 11/1/10
f 11/1/11 12/1/11 16/1/11 15/1/11
f 14/1/12 11/1/12 15/1/12 17/1/12
f 12/1/13 13/1/13 16/1/13
f 13/1/14 14/1/14 17/1/14
f 17/1/15 16/1/15 13/1/15
f 17/1/16 15/1/16 18/1/16 20/1/16
f 16/1/17 17/1/17 20/1/17 19/1/17
f 15/1/18 16/1/18 19/1/18 18/1/18
f 19/1/19 20/1/19 18/1/19
