# Blender 4.3.0
# www.blender.org
mtllib Wizard hat black straight.mtl
o Circle.001
v -5.921931 0.464384 -1.000000
v -6.872987 0.464384 -0.309017
v -6.509716 0.464384 0.809017
v -5.334146 0.464384 0.809017
v -4.970874 0.464384 -0.309017
v -5.921931 0.221747 -2.193428
v -8.008005 0.221747 -0.677806
v -7.211195 0.221747 1.774520
v -4.632666 0.221747 1.774520
v -3.835857 0.221747 -0.677806
v -5.921931 1.574004 -0.757188
v -6.525543 1.319501 -0.082080
v -5.921931 1.064999 0.677673
v -5.318318 1.319501 -0.082080
v -5.921931 2.407194 0.026257
v -6.322404 1.960277 0.556730
v -5.521458 1.960277 0.556730
v -5.921931 2.726075 1.138356
v -5.968964 2.644648 1.140810
v -5.874897 2.644648 1.140810
vn -0.2318 0.9698 0.0753
vn 0.1433 0.9698 -0.1972
vn -0.0000 0.9698 0.2437
vn -0.1433 0.9698 -0.1972
vn 0.2318 0.9698 0.0753
vn -0.0000 0.2136 0.9769
vn -0.7625 0.4600 0.4550
vn 0.7625 0.4600 0.4550
vn 0.6588 0.2831 -0.6970
vn -0.6588 0.2831 -0.6970
vn -0.7916 0.4773 -0.3816
vn 0.7916 0.4773 -0.3816
vn -0.7949 -0.2831 0.5367
vn 0.7949 -0.2831 0.5367
vn -0.0000 0.1339 0.9910
vn 0.8242 0.5458 -0.1511
vn -0.0000 -0.6492 0.7606
vn -0.8242 0.5458 -0.1511
vn -0.0000 0.0301 0.9995
vt 0.000000 0.000000
s 0
usemtl Material.002
f 3/1/1 2/1/1 7/1/1 8/1/1
f 1/1/2 5/1/2 10/1/2 6/1/2
f 4/1/3 3/1/3 8/1/3 9/1/3
f 2/1/4 1/1/4 6/1/4 7/1/4
f 5/1/5 4/1/5 9/1/5 10/1/5
f 3/1/6 4/1/6 13/1/6
f 2/1/7 3/1/7 13/1/7 12/1/7
f 4/1/8 5/1/8 14/1/8 13/1/8
f 5/1/9 1/1/9 11/1/9 14/1/9
f 1/1/10 2/1/10 12/1/10 11/1/10
f 11/1/11 12/1/11 16/1/11 15/1/11
f 14/1/12 11/1/12 15/1/12 17/1/12
f 12/1/13 13/1/13 16/1/13
f 13/1/14 14/1/14 17/1/14
f 17/1/15 16/1/15 13/1/15
f 17/1/16 15/1/16 18/1/16 20/1/16
f 16/1/17 17/1/17 20/1/17 19/1/17
f 15/1/18 16/1/18 19/1/18 18/1/18
f 19/1/19 20/1/19 18/1/19
